<?xml version="1.0" encoding="UTF-8"?>
<svg id="Layer_1" xmlns="http://www.w3.org/2000/svg" width="295.2" height="400" version="1.1" viewBox="0 0 295.2 400">
  <!-- Generator: Adobe Illustrator 29.3.1, SVG Export Plug-In . SVG Version: 2.1.0 Build 151)  -->
  <path d="M186.1,8.6h-76.9C55.4,8.6,11.6,52.3,11.6,106.1v187.7c0,53.8,43.8,97.5,97.6,97.5h76.9c53.8,0,97.6-43.8,97.6-97.5V106.1c0-53.8-43.8-97.6-97.6-97.6ZM277.1,106.1v187.7c0,50.2-40.9,91.1-91.1,91.1h-76.9c-50.2,0-91.1-40.9-91.1-91.1V106.1C18.1,55.9,58.9,15.1,109.2,15.1h76.9c50.2,0,91.1,40.9,91.1,91.1Z"/>
  <path d="M166.8,102.7c11.8,6,23.2,9,34.9,9,19.7,0,32.9-11.8,32.9-29.5s-11.9-27.6-29.5-27.6-29.2,12-41.4,38.9c-8.5-5-16.2-10.9-23.6-16.7-14.9-11.4-28.9-22.3-44.4-22.3s-35.2,13.4-35.2,32.6,16.3,30.1,31.4,30.1,22.1-5.5,28.8-15c1-1.5.7-3.5-.8-4.5-.7-.5-1.6-.7-2.4-.6-.9.1-1.6.6-2.1,1.3-5.6,7.9-14,12.2-23.6,12.2s-24.9-7.4-24.9-23.6,11.6-26.1,28.8-26.1,25.9,9.7,40.5,20.9c7.8,6,15.9,12.3,24.9,17.5-5.3,12.7-10.1,26.8-15.2,42,0,.2-.1.3-.2.5l-21.1-9.3c-1.7-.7-3.6,0-4.3,1.7-.3.8-.4,1.7,0,2.5.3.8.9,1.4,1.7,1.8l21.6,9.5c-4.7,14-9.6,28-15.1,40.2-14.9-10.6-25.9-15.3-35.7-15.3-18.7,0-32.3,13.3-32.3,31.6s11.6,28.7,29.4,28.7,29-11.2,41.1-35.2c4.9,3.7,9.8,7.7,14.7,11.6,5.5,4.4,11.7,9.5,17.8,14-4.7,10.4-9.1,22.2-13.4,33.7-1,2.6-1.9,5.2-2.9,7.8l-19.6-10.2c-.8-.4-1.6-.5-2.4-.2-.8.3-1.5.8-1.9,1.6-.8,1.6-.2,3.5,1.4,4.4l20.3,10.5c-5.7,14.9-11.8,29.5-19.1,41.2-11.1-12.7-21.6-24.7-37.7-24.7s-27.6,12.3-27.6,29.9,11.3,27.8,27.5,27.8,27.4-7.3,38.6-22.4c10.7,11.7,23.1,22.4,40.8,22.4s24.2-2.9,34.2-9.3c1.5-1,2-3,1-4.5-.9-1.5-3-2-4.5-1-8.9,5.6-18.7,8.2-30.7,8.2s-27.2-10.5-37-21.4c7.9-12.3,14.3-27.5,20.4-43.2l22.3,11.6c.5.2,1,.4,1.5.4,1.2,0,2.3-.7,2.9-1.7.8-1.6.2-3.5-1.4-4.4l-23-11.9c1.1-2.8,2.1-5.7,3.2-8.5,4.1-10.9,8.3-22.2,12.7-32.1,13.7,9.4,24.4,13.8,33.6,13.8,16,0,32.1-10.4,32.1-30.3s-12.2-26.8-30.5-26.8-26.4,10.3-37.8,33.5c-5.5-4.1-11.1-8.6-16.6-13-5.2-4.2-10.6-8.5-15.9-12.5,5.8-12.6,10.8-27,15.7-41.4l22.3,9.8c.4.2.9.3,1.3.3,1.3,0,2.5-.8,3-1.9.4-.8.4-1.7,0-2.5-.3-.8-.9-1.4-1.7-1.8l-22.9-10.1c.1-.4.2-.7.4-1.1,4.7-13.9,9.5-28.2,14.8-40.9ZM169.4,96.7c11.1-24.3,22.4-35.7,35.6-35.7s23,5.5,23,21.1-10.4,23-26.4,23-21.2-2.8-32.3-8.5ZM125.8,194.3c-10.9,22.2-22.3,32.6-35.8,32.6s-23-8.5-23-22.2,10.6-25.1,25.9-25.1,23.9,8.3,32.9,14.8ZM122.1,318c-10.1,14.1-21.2,20.9-34.1,20.9s-21.1-8.6-21.1-21.4,8.5-23.4,21.1-23.4,22.8,11,32.9,22.6l1.1,1.2ZM171.6,221.6c10.3-21.3,20.4-30.8,32.5-30.8s24,8,24,20.3-13.3,23.9-25.6,23.9-17.9-4.2-30.8-13.3Z"/>
</svg>